<?xml version="1.0" encoding="UTF-8"?>
<svg id="Capa_1" data-name="Capa 1" xmlns="http://www.w3.org/2000/svg" viewBox="0 0 113.08 143.06">
  <defs>
    <style>
      .cls-1 {
        fill: none;
        stroke: #1d1d1b;
        stroke-miterlimit: 10;
        stroke-width: 15px;
      }

      .cls-2 {
        fill: #1d1d1b;
      }

      .cls-2, .cls-3 {
        stroke-width: 0px;
      }

      .cls-3 {
        fill: #fff;
      }
    </style>
  </defs>
  <rect class="cls-2" y="46.57" width="113.08" height="96.49" rx="16.8" ry="16.8"/>
  <path class="cls-1" d="M87.35,47.8c.72-18.85-4.17-33.49-19.33-38.5-2.83-.94-6.97-1.8-11.48-1.8-4.5,0-8.64.86-11.48,1.8-15.16,5.01-20.05,19.65-19.33,38.5"/>
  <path class="cls-3" d="M50.42,108.74l.09-9.25c.03-3.42-1.82-6.62-4.87-8.15-2.37-1.19-4.66-3.81-4.5-9.51.3-10.55,12.9-10.17,15.08-10.03.22.01.43.01.64,0,2.18-.15,14.77-.53,15.08,10.03.16,5.7-2.13,8.32-4.5,9.51-3.05,1.53-4.91,4.74-4.87,8.15l.09,9.25c.01,1.34-.48,2.64-1.39,3.62l-.85.92c-2.09,2.27-5.66,2.27-7.75,0l-.85-.92c-.91-.99-1.41-2.28-1.39-3.62Z"/>
</svg>