<?xml version="1.0" encoding="UTF-8"?>
<svg id="Capa_1" data-name="Capa 1" xmlns="http://www.w3.org/2000/svg" viewBox="0 0 53.11 42.44">
  <defs>
    <style>
      .cls-1 {
        fill: #1d1d1b;
        stroke-width: 0px;
      }
    </style>
  </defs>
  <path class="cls-1" d="M50.81,42.44c1.27,0,2.3-1.65,2.3-3.68V15.81c0-2.64-1.69-4.43-3.21-3.38l-16.44,11.28c-4.16,2.86-9.66,2.86-13.82,0L3.21,12.42c-1.52-1.04-3.21.74-3.21,3.38v22.95c0,2.03,1.03,3.68,2.3,3.68h48.51Z"/>
  <path class="cls-1" d="M48.32,0c1.27,0,2.3,1.65,2.3,3.68h0c0,1.47-.55,2.8-1.39,3.38l-16.44,12.52c-3.68,2.8-8.78,2.8-12.46,0L3.89,7.07c-.85-.58-1.39-1.91-1.39-3.38h0c0-2.03,1.03-3.68,2.3-3.68h43.52Z"/>
</svg>