<?xml version="1.0" encoding="UTF-8"?>
<svg id="Capa_1" data-name="Capa 1" xmlns="http://www.w3.org/2000/svg" viewBox="0 0 79.37 79.37">
  <defs>
    <style>
      .cls-1 {
        fill: #1d1d1b;
        stroke-width: 0px;
      }
    </style>
  </defs>
  <path class="cls-1" d="M6.25,34.52l38.59,38.59c8.68,8.68,22.87,8.27,31.04-.9l1.26-1.42c3.02-3.39,2.95-8.51-.16-11.82l-11.15-11.86c-3.5-3.73-9.45-3.67-12.88.12h0c-3.36,3.72-9.14,3.86-12.69.32l-7.87-7.85-.6-.62c-3.54-3.54-3.4-9.33.32-12.69h0c3.8-3.43,3.85-9.37.12-12.88L20.39,2.37c-3.3-3.1-8.43-3.17-11.82-.16l-1.42,1.26c-9.17,8.16-9.58,22.36-.9,31.04h0Z"/>
</svg>