<?xml version="1.0" encoding="UTF-8"?>
<svg id="Capa_1" data-name="Capa 1" xmlns="http://www.w3.org/2000/svg" viewBox="0 0 113.08 143.06">
  <defs>
    <style>
      .cls-1 {
        fill: #1d1d1b;
      }

      .cls-1, .cls-2 {
        stroke-width: 0px;
      }

      .cls-2 {
        fill: #fff;
      }
    </style>
  </defs>
  <rect class="cls-1" y="46.57" width="113.08" height="96.49" rx="16.8" ry="16.8"/>
  <path class="cls-2" d="M50.42,108.74l.09-9.25c.03-3.42-1.82-6.62-4.87-8.15-2.37-1.19-4.66-3.81-4.5-9.51.3-10.55,12.9-10.17,15.08-10.03.22.01.43.01.64,0,2.18-.15,14.77-.53,15.08,10.03.16,5.7-2.13,8.32-4.5,9.51-3.05,1.53-4.91,4.74-4.87,8.15l.09,9.25c0,1.34-.48,2.64-1.39,3.62l-.85.92c-2.09,2.27-5.66,2.27-7.75,0l-.85-.92c-.91-.99-1.41-2.28-1.39-3.62h-.01Z"/>
  <path class="cls-1" d="M79.91,46.57v-8.55c-.36-11.8-8.09-22.67-23.37-23.04-15.28.37-23.02,11.24-23.37,23.04v8.55h-14.94v-8.25C18.22,17.16,35.38,0,56.54,0h0s0,0,0,0c21.16,0,38.32,17.16,38.32,38.32v8.25h-14.94Z"/>
</svg>