<?xml version="1.0" encoding="UTF-8"?>
<svg id="Capa_1" data-name="Capa 1" xmlns="http://www.w3.org/2000/svg" viewBox="0 0 189.33 114.67">
  <defs>
    <style>
      .cls-1 {
        fill: #1d1d1b;
        stroke-width: 0px;
      }
    </style>
  </defs>
  <g>
    <path class="cls-1" d="M8.41,45.16c0,7.09.05,14.59,1.14,15.03.89.36,1.14-5.72,1.14-14.1,0-6.57-.17-14.89-.52-22.63,2.14.87,3.21,1.3,5.36,2.17-.37,5.77-.55,11.25-.55,16.28,0,14.95,1.74,21.2,4.54,22.34,1.59.65,2.7-2.25,2.7-6.64,0-5.29-.67-1.82-2.6-2.61-1.76-.72-2.9-6.98-2.9-16,0-10.06,1.24-14.84,3.3-14,2.83,1.15,4.66,11.15,4.49,26.71-.09,8.49-1,43.74-7.22,44.25-1.56.13-3.98-10.4-4.12-24.11-.03-2.84-.15-4.7-.69-4.92-.55-.22-.72,1.64-.89,4.53-.74,12.59-3.97,21.37-5.95,19.74C.08,86.61.91,71.16.77,61.38c-.2-13.82-.14-28.05-.77-42.05,3.53,1.43,5.3,2.15,8.83,3.58-.25,7.11-.42,15.29-.42,22.25Z"/>
    <path class="cls-1" d="M36.89,72.99c1.69.69,3.55.16,5.06-1.42-.54,9.68-4.16,31.6-8.11,31.14-5.24-.6-8.2-27.7-8.18-39.32.01-8.99,2.84-33.7,8.43-32.82,5.78.91,7.33,25.42,7.61,34.84-3.19-1.3-4.79-1.95-7.99-3.25-.65-.26-.94.65-.94,2.71,0,3.74,1.41,7.02,4.12,8.13ZM34.09,55.73c.84.34,1.24-2.72,1.24-6.46,0-4.26-.4-8.29-1.24-8.63-.84-.34-1.19,3.39-1.19,7.65,0,3.74.35,7.11,1.19,7.45Z"/>
    <path class="cls-1" d="M52.13,92.63c-.17-2.14-.37-3.38-.67-3.5-.3-.12-.47.97-.47,2.78,0,3.1.12,10.25.27,15.34-3.25-1.33-4.88-1.99-8.13-3.32.37-28.86.26-57.7-.25-86.56,3.48,1.41,5.22,2.11,8.7,3.52-.21,10.8-.34,21.6-.35,32.39,0,2.32.22,3.96.55,4.1.3.12.55-1.07.77-3.05.82-7.54,2.84-15.63,4.54-14.43,7.14,5.05,6.02,27.2,6.03,37.19,0,8.97-1.33,34.39-6,35.13-1.41.22-4.31-11.44-4.98-19.59ZM52.89,79.64c1.12.45,2.01-4.22,2.01-9.64,0-3.87-.5-6.66-1.24-6.96-1.09-.44-1.96,4.37-1.96,9.92,0,3.74.47,6.39,1.19,6.68Z"/>
  </g>
  <g>
    <path class="cls-1" d="M73,107.76c-3.95,1.61-5.93,2.42-9.88,4.04.61-28.74.93-57.5,0-86.24,3.95-1.6,5.93-2.4,9.88-4-.91,28.73-.62,57.47,0,86.2Z"/>
    <path class="cls-1" d="M82.91,43.68c0,2.58.24,4.21.58,4.07.32-.13.66-1.71.84-4.08.71-9.05,1.9-18.86,4.56-19.94,2.53-1.03,3.74,4.8,4.17,17.12.11,1.82.32,2.89.63,2.76.37-.15.66-1.71.84-4.08.71-9.04,3.15-20.12,4.56-19.94,4.08.52,4.33,22.82,4.35,29.66.05,15.17-.59,30.67.21,45.98-3.64,1.49-5.46,2.23-9.1,3.71.29-12.57.59-25.15.61-37.71,0-6.17-.4-8.31-1-8.06-.58.24-1.15,2.92-1.13,10.94.02,11.74.2,23.52.42,35.29-3.64,1.49-5.46,2.23-9.1,3.71.29-12.57.59-25.16.61-37.73,0-6.17-.47-8.28-1.08-8.03-.55.23-1.06,2.73-1.06,10.34,0,11.93.2,23.88.58,35.81-3.64,1.49-5.46,2.23-9.1,3.71.35-24.87.26-49.72-.26-74.6,3.69-1.5,5.54-2.24,9.23-3.74-.18,4.96-.37,11.78-.37,14.8Z"/>
    <path class="cls-1" d="M116.28,32.14c.18,2.22.39,3.71.76,3.56.34-.14.55-1.66.55-3.81,0-3.45-.13-11.28-.29-16.8,3.46-1.4,5.19-2.1,8.65-3.51-.35,24.82-.26,49.62.26,74.44-3.66,1.49-5.49,2.24-9.15,3.74.13-3.92.26-11.29.26-15.45,0-2.29-.16-3.52-.5-3.38-.32.13-.5,1.35-.69,3.29-.95,9.42-4,21.23-5.43,21-5.27-.85-5.99-25.93-6.01-36.14-.03-12.97-1.64-38.12,6.38-44.34,1.82-1.41,4.48,8.94,5.19,17.4ZM114.75,62.02c1.16-.47,2.08-6.59,2.08-12.75,0-4.16-.5-6.68-1.27-6.37-1.19.48-2.14,6.46-2.14,12.48,0,4.3.53,6.96,1.32,6.64Z"/>
  </g>
  <g>
    <path class="cls-1" d="M130.26,64.6c.44.08.67-.5.67-1.56,0-.77-.16-1.42-.48-1.93-2.6-4.24-3.97-10.3-3.97-18.88,0-11.76,3.56-19.09,9.12-16.84,1.94.79,2.96,2.26,3.69,2.56.7.28.98-1.05.98-2.78,0-3.86-.51-5.8-.51-10.24,0-6.07,1.24-8.95,3.11-8.19,1.94.78,3.21,4.97,3.21,10.66,0,7.24-1.94,11.08-4.54,12.24-.25.09-.44.59-.44,1.26,0,.77.19,1.24.44,1.63,2.95,4.58,4.22,10.4,4.22,17.54,0,12.06-3.2,19.01-10.26,16.18-1.65-.66-2.57-.86-2.57,1.46,0,1.64.51,2.72,1.87,3.27,3.59,1.46,8.23.56,11.34-3-.34,9.6-.51,19.22-.51,28.83-3.78-4.54-9.72-4.74-14.64-6.75-2.89-1.18-4.77-6.09-4.77-14.96,0-7.9,1.56-10.93,4.03-10.5ZM136.13,44.72c.95.39,1.65-1.16,1.65-4.25,0-3.38-.7-6.26-1.65-6.65-.92-.37-1.59,1.96-1.59,5.34,0,3.09.67,5.19,1.59,5.57Z"/>
    <path class="cls-1" d="M161.75,66.91c2.16.88,4.54.89,6.48.03-.41,16.25-5.51,24.05-10.39,21.55-9.4-4.82-10.23-21.09-10.48-31.2-.21-8.26,2.88-24.6,10.8-22.73,7.62,1.8,10.04,18.9,9.75,27.72-4.09-1.66-6.14-2.5-10.23-4.16-.83-.34-1.21.28-1.21,1.82,0,2.8,1.81,5.56,5.27,6.97ZM158.16,53.38c1.08.44,1.59-1.77,1.59-4.57,0-3.19-.51-6.29-1.59-6.73-1.08-.44-1.52,2.28-1.52,5.46,0,2.8.44,5.39,1.52,5.83Z"/>
    <path class="cls-1" d="M169.92,53.24c0-10.82,3.27-12.58,7.53-10.85,4.38,1.78,8.7,5.75,11.5,5.73-.08,9.44-.11,14.16-.19,23.6-1.97-5.83-4.41-10.1-6.73-11.05-.89-.36-1.59.42-1.59,2.35,0,6.67,8.89,1.2,8.89,22.37,0,9.86-2.73,14.83-8.23,12.59-4.48-1.83-7.12-4.93-11.15-6.48-.05-10.33-.08-15.5-.13-25.84,1.87,5.21,4.48,9.64,6.7,10.55,1.24.5,1.97-.65,1.97-2.58,0-6.67-8.58-.79-8.58-20.39Z"/>
  </g>
</svg>