<?xml version="1.0" encoding="UTF-8"?>
<svg id="Capa_1" data-name="Capa 1" xmlns="http://www.w3.org/2000/svg" version="1.1" viewBox="0 0 113.1 143.1">
  <defs>
    <style>
      .cls-1 {
        fill: #1d1d1b;
      }

      .cls-1, .cls-2 {
        stroke-width: 0px;
      }

      .cls-2 {
        fill: #fff;
      }
    </style>
  </defs>
  <rect class="cls-1" y="46.6" width="113.1" height="96.5" rx="16.8" ry="16.8"/>
  <path class="cls-2" d="M50.4,108.7v-9.2c.1-3.4-1.7-6.6-4.8-8.2-2.4-1.2-4.7-3.8-4.5-9.5.3-10.6,12.9-10.2,15.1-10,.2,0,.4,0,.6,0,2.2-.2,14.8-.5,15.1,10,.2,5.7-2.1,8.3-4.5,9.5-3.1,1.5-4.9,4.7-4.9,8.2v9.2c0,1.3-.4,2.6-1.3,3.6l-.8.9c-2.1,2.3-5.7,2.3-7.8,0l-.8-.9c-.9-1-1.4-2.3-1.4-3.6h0Z"/>
  <path class="cls-1" d="M27.4,34c-5,0-8.7-4.6-7.4-9.5C24.3,9.2,38.8,0,56.5,0h0s0,0,0,0c21.2,0,38.3,17.2,38.3,38.3v8.3h-14.9v-8.5c-.4-11.8-8.1-22.7-23.4-23-12.7.3-19.8,5-22.1,13.4s-3.7,5.6-7.1,5.6h0Z"/>
</svg>