<?xml version="1.0" encoding="UTF-8"?>
<svg id="Capa_1" data-name="Capa 1" xmlns="http://www.w3.org/2000/svg" viewBox="0 0 100.78 88.44">
  <defs>
    <style>
      .cls-1 {
        fill: #1d1d1b;
        stroke-width: 0px;
      }
    </style>
  </defs>
  <path class="cls-1" d="M12.05,61.83C7.23,58.47,4.82,56.79,0,53.43.7,37.85.84,22.15,0,6.57c4.83,3.35,7.24,5.02,12.07,8.36-.9,15.59-.68,31.3-.02,46.89Z"/>
  <path class="cls-1" d="M13.43,44.65c0-11.26,5.01-16.2,11.34-11.8,6.3,4.37,11.3,10.21,11.3,21.46,0,11.54-4.94,22.48-11.34,17.75-8.1-5.97-11.31-17.46-11.3-27.41ZM24.75,49.73c1.29.9,1.92-.63,1.93-2.87,0-2.52-.62-5.27-1.92-6.17-1.33-.92-1.86,1.03-1.86,3.55,0,2.24.52,4.57,1.85,5.49Z"/>
  <path class="cls-1" d="M41.89,60.71c.49-.41.74-1.06.74-1.83,0-.56-.18-.86-.53-.9-2.89-.35-4.4-3.31-4.4-9.54,0-8.53,3.92-17.61,10.05-21.85,2.14-1.48,3.26-1.48,4.07-2.04.77-.53,1.08-1.8,1.08-3.07,0-2.81-.57-3.69-.58-6.92-.01-4.43,1.34-7.84,3.4-9.28,2.13-1.49,3.54.21,3.56,4.37.03,5.28-2.09,10.14-4.96,13.74-.28.33-.49.9-.49,1.39,0,.56.21.7.49.72,3.27.21,4.69,3.12,4.71,8.34.04,8.8-3.43,17.2-11.31,22.57-1.82,1.24-2.86,2.07-2.85,3.75,0,1.19.57,1.44,2.08.42,3.99-2.69,9.13-8.21,12.57-14.07-.32,7-.49,15.67-.46,21.58-4.22.63-10.83,6.67-16.32,10.34-3.22,2.15-5.31.54-5.31-5.89,0-5.73,1.73-9.56,4.48-11.84ZM48.37,40.08c1.05-.72,1.82-2.59,1.82-4.83,0-2.46-.78-3.82-1.83-3.1-1.02.7-1.75,3.1-1.74,5.56,0,2.24.74,3.07,1.76,2.38Z"/>
  <path class="cls-1" d="M60.48,19.21c4.83-3.34,7.34.58,12.28,3.76-.44,12.15-.36,23.98.16,36.13-4.91-3.22-7.38-6.53-12.25-3.25.4-12.32.36-24.33-.19-36.65ZM62.71,9.59c-.02-3.95,1.7-6.16,4-4.7,2.33,1.49,4.03,5,4.05,8.89.02,3.27-1.51,4.85-3.98,3.26-2.43-1.57-4.04-4.13-4.06-7.45Z"/>
  <path class="cls-1" d="M85.95,38.57c0,1.25.33,2.3.79,2.6.43.28.89-.12,1.14-1.07.96-3.63,2.56-7.13,6.18-4.8,4.44,2.86,6.44,9.32,6.44,19.46,0,8.74-.82,14.99.28,22.63-4.91-3.22-7.37-4.83-12.28-8.06.55-7.79.79-13.97.79-17.67,0-3-.86-4.67-1.68-5.2-.75-.49-1.75-.02-1.74,3.67,0,4.18.2,10.78.82,18.01-4.91-3.22-7.37-4.84-12.28-8.06.32-12.23.13-24.15-.51-36.37,5.01,3.23,7.51,4.84,12.52,8.07-.25,2.21-.49,5.32-.49,6.78Z"/>
</svg>